<svg id="SvgjsSvg1028" width="288" height="288" xmlns="http://www.w3.org/2000/svg" version="1.1" xmlns:xlink="http://www.w3.org/1999/xlink" xmlns:svgjs="http://svgjs.com/svgjs"><defs id="SvgjsDefs1029"></defs><g id="SvgjsG1030"><svg xmlns="http://www.w3.org/2000/svg" data-name="Layer 3" viewBox="0 0 500 625" width="288" height="288"><path d="M262.792 308.749a10.00145 10.00145 0 00-13.18554 5.11328l-20.84009 47.23926a46.811 46.811 0 00-15.92749 1.69043c-17.64942 4.8916-33.7666 18.98242-44.21778 38.65723-8.39257 15.79785-12.03515 33.32031-10.25586 49.33984 1.91114 17.209 9.79 30.79492 22.18555 38.25489a29.81007 29.81007 0 0015.37012 4.73046 23.31416 23.31416 0 006.35351-.88086c13.94239-3.92773 22.01172-19.43359 32.22754-39.06347 1.39649-2.68262 2.83789-5.45313 4.34278-8.28613 1.48535-2.7959 2.97754-5.54981 4.44238-8.25293 7.083-13.07325 13.77344-25.42188 16.38281-36.49024 4.27954-18.14783-3.80957-28.07959-11.85522-33.3258l20.09057-45.54041A10.00113 10.00113 0 00262.792 308.749zM225.70215 427.76367c-1.49024 2.751-3.00781 5.55274-4.51953 8.39746-1.53223 2.88379-3.001 5.70508-4.42188 8.43653-6.69922 12.87207-14.292 27.46289-19.91015 29.04589-1.40235.39063-3.417-.18945-5.98731-1.73632-15.208-9.15235-17.30566-37.1211-4.58008-61.0752 7.77246-14.63086 19.69629-25.38476 31.89844-28.76758a27.95367 27.95367 0 017.40625-1.05273 20.68458 20.68458 0 0110.80957 2.9043C243.78809 388.36328 243.27734 395.32422 225.70215 427.76367zM334.25 365.2627a46.76085 46.76085 0 00-15.86792-2.30469L297.502 313.58887a9.99992 9.99992 0 10-18.41992 7.791l19.9917 47.26844c-10.894 6.50561-15.63452 16.411-13.686 28.753 1.51269 9.584 6.83984 20.083 13.00878 32.24121 1.89747 3.74023 3.86036 7.6084 5.82422 11.666l.001.001c1.92871 3.98438 3.78418 7.99512 5.57715 11.874 9.29687 20.10352 17.32519 37.46582 31.55273 42.14942a23.01848 23.01848 0 007.23535 1.1709 27.7097 27.7097 0 0013.36524-3.72461c12.67578-6.95313 21.05469-20.21778 23.59375-37.35157 2.36035-15.93164-.63965-33.58691-8.44727-49.71191C367.35547 385.5918 351.7373 370.84668 334.25 365.2627zm18.084 109.98144c-3.01757 1.65527-4.30468 1.22949-4.72949 1.0918-5.97461-1.9668-13.55859-18.36817-19.65234-31.54688-1.83008-3.958-3.72266-8.05078-5.73047-12.19629l.001.001c-2.0459-4.22559-4.05176-8.17773-5.99024-12-13.90722-27.41113-13.60254-31.13672-6.25683-35.166 6.59277-3.61523 13.53222-2.60058 18.19043-1.11328 12.11035 3.86719 23.67285 15.126 30.93164 30.11719C370.93945 438.88867 367.8418 466.7373 352.334 475.24414z" fill="#5d5d5d" class="color000 svgShape"></path><ellipse cx="273.175" cy="280.924" rx="24.409" ry="25.979" fill="#5d5d5d" class="color000 svgShape"></ellipse><path d="M498.28418,309.12891C483.97168,239,448.87891,191.57715,393.98047,168.17773a200.81864,200.81864,0,0,0-53.35889-14.13964l13.71924-28.05176a10.00024,10.00024,0,0,0-17.9668-8.78711l-17.1416,35.04932a308.39325,308.39325,0,0,0-49.27051,2.08251,9.99975,9.99975,0,0,0,2.36329,19.85938c43.96289-5.23242,82.2539-1.06641,113.8125,12.38574,48.49218,20.66895,79.63085,63.24707,92.55078,126.55274a9.99989,9.99989,0,0,0,19.5957-4Z" fill="#5d5d5d" class="color000 svgShape"></path><path d="M314.06958 192.95886a9.69429 9.69429 0 00-5.561-1.34 124.41645 124.41645 0 00-26.56518-3.031h-.01074a10 10 0 00-.01074 20 97.35724 97.35724 0 0113.04248.94067l-9.58252 23.24781a9.99962 9.99962 0 1018.49023 7.62109l10.87647-26.38721a152.98259 152.98259 0 0131.99951 14.394 182.817 182.817 0 0188.31543 142.64648c2.90429 35.8125-4.06543 73.56348-20.71582 112.2041a9.99982 9.99982 0 1018.36718 7.91407c33.81153-78.46778 30.125-155.624-10.38086-217.25586C395.82324 233.57544 354.96924 203.70752 314.06958 192.95886zM187.249 223.27148a224.66334 224.66334 0 0048.15161-5.16992l8.77515 20.74805a9.99992 9.99992 0 0018.41992-7.791L213.419 114.78613a9.99992 9.99992 0 00-18.41993 7.791l17.166 40.58716c-31.12085-2.23877-59.25928-15.2688-78.39942-36.68872C110.126 100.02051 100.71484 61.10938 106.55176 13.9502a9.99958 9.99958 0 00-19.84766-2.457c-6.56738 53.05567 4.54981 97.42383 32.14844 128.3086 24.68384 27.62378 61.709 43.46313 101.917 43.7063l6.68994 15.81787c-23.65991 4.70971-97.25293 14.168-146.02685-36.93238C50.45605 129.93945 36.54 91.24219 30.32031 64.49414c-6.82129-29.334-6.167-51.20215-6.16015-51.40723a9.99984 9.99984 0 00-19.98633-.73046c-.03613.9746-.78906 24.24023 6.51465 56.01171 6.751 29.36817 21.99414 71.916 56.27636 107.834 27.73243 29.05566 66.6084 45.2832 112.42578 46.92871Q183.40137 223.27441 187.249 223.27148z" fill="#5d5d5d" class="color000 svgShape"></path></svg></g></svg>