<svg xmlns="http://www.w3.org/2000/svg" xmlns:xlink="http://www.w3.org/1999/xlink" version="1.1" x="0px" y="0px" viewBox="0 0 90 112.5" style="enable-background:new 0 0 90 90;" xml:space="preserve"><path d="M59.6177559,13.6594305C32.2691574,6.562613,8.5554571,22.3140297,7.5169573,47.0662308  s7.7890997,30.9834976,7.7890997,30.9834976c-3.1155996-23.0211983,13.3281002-26.3099976,13.3281002-26.3099976  l-7.7891006,10.385498c9.6932011-1.3847008,21.2903996-8.4814987,21.2903996-8.4814987l-8.1353989,7.2698822  c26.6562004-2.0770836,37.0417976-22.1557846,37.0417976-22.1557846s-1.5578003,8.8277016-8.8277969,16.2707024  c0,0,3.8404999,0.0909004,8.3535004-2.6392021c-1.2146988,2.8218002-2.5100021,7.0076027-2.1222,11.4668999  c0.6923981,7.9622002,9.5202026,14.1935005,9.5202026,14.1935005  C85.2353592,54.8554306,86.9663544,20.7562294,59.6177559,13.6594305z"/></svg>